<svg width="854" height="139" viewBox="0 0 854 139" fill="none" xmlns="http://www.w3.org/2000/svg">
<path d="M11.8121 41.848V33.856H42.6281V41.848H11.8121ZM0.220094 52L22.1081 5.416H32.4761L54.5801 52H44.1401L24.9881 10.024H29.5961L10.5881 52H0.220094ZM77.1307 52.792C73.5307 52.792 70.2667 52.024 67.3387 50.488C64.4587 48.904 62.1787 46.72 60.4987 43.936C58.8187 41.104 57.9787 37.84 57.9787 34.144C57.9787 30.352 58.7947 27.064 60.4267 24.28C62.1067 21.496 64.3867 19.336 67.2667 17.8C70.1467 16.216 73.4347 15.424 77.1307 15.424C80.3467 15.424 83.0827 15.904 85.3387 16.864C87.5947 17.824 89.4187 19.168 90.8107 20.896C92.2027 22.576 93.2107 24.544 93.8347 26.8C94.5067 29.056 94.8427 31.504 94.8427 34.144C94.8427 36.256 94.5067 38.416 93.8347 40.624C93.1627 42.784 92.1307 44.8 90.7387 46.672C89.3467 48.496 87.5227 49.984 85.2667 51.136C83.0107 52.24 80.2987 52.792 77.1307 52.792ZM80.1547 45.592C82.9867 45.592 85.4347 45.112 87.4987 44.152C89.5627 43.192 91.1467 41.848 92.2507 40.12C93.3547 38.392 93.9067 36.4 93.9067 34.144C93.9067 31.696 93.3307 29.632 92.1787 27.952C91.0747 26.224 89.4907 24.904 87.4267 23.992C85.4107 23.08 82.9867 22.624 80.1547 22.624C76.1707 22.624 73.0747 23.68 70.8667 25.792C68.6587 27.904 67.5547 30.688 67.5547 34.144C67.5547 36.448 68.0827 38.464 69.1387 40.192C70.1947 41.872 71.6587 43.192 73.5307 44.152C75.4507 45.112 77.6587 45.592 80.1547 45.592ZM93.9067 1.816H103.267V52H94.5547C94.4107 50.896 94.2667 49.48 94.1227 47.752C93.9787 45.976 93.9067 44.32 93.9067 42.784V1.816ZM130.779 52.792C127.227 52.792 123.987 52.024 121.059 50.488C118.179 48.904 115.875 46.72 114.147 43.936C112.467 41.104 111.627 37.84 111.627 34.144C111.627 30.352 112.491 27.064 114.219 24.28C115.947 21.496 118.275 19.336 121.203 17.8C124.179 16.216 127.539 15.424 131.283 15.424C135.411 15.424 138.723 16.264 141.219 17.944C143.763 19.576 145.611 21.808 146.763 24.64C147.915 27.472 148.491 30.64 148.491 34.144C148.491 36.256 148.155 38.416 147.483 40.624C146.811 42.784 145.779 44.8 144.387 46.672C142.995 48.496 141.171 49.984 138.915 51.136C136.659 52.24 133.947 52.792 130.779 52.792ZM133.803 45.592C136.635 45.592 139.083 45.112 141.147 44.152C143.211 43.192 144.795 41.848 145.899 40.12C147.003 38.392 147.555 36.4 147.555 34.144C147.555 31.696 146.979 29.632 145.827 27.952C144.723 26.224 143.139 24.928 141.075 24.064C139.059 23.152 136.635 22.696 133.803 22.696C129.819 22.696 126.723 23.752 124.515 25.864C122.307 27.928 121.203 30.688 121.203 34.144C121.203 36.448 121.731 38.464 122.787 40.192C123.843 41.872 125.307 43.192 127.179 44.152C129.099 45.112 131.307 45.592 133.803 45.592ZM147.555 16.216H156.915V52H148.203C148.203 52 148.131 51.544 147.987 50.632C147.891 49.672 147.795 48.472 147.699 47.032C147.603 45.592 147.555 44.176 147.555 42.784V16.216ZM191.45 52.864C188.282 52.864 185.57 52.312 183.314 51.208C181.106 50.056 179.306 48.568 177.914 46.744C176.522 44.872 175.49 42.832 174.818 40.624C174.146 38.416 173.81 36.256 173.81 34.144C173.81 31.504 174.122 29.056 174.746 26.8C175.418 24.544 176.45 22.576 177.842 20.896C179.234 19.168 181.034 17.824 183.242 16.864C185.498 15.904 188.234 15.424 191.45 15.424C195.05 15.424 198.29 16.216 201.17 17.8C204.05 19.384 206.33 21.592 208.01 24.424C209.738 27.208 210.602 30.448 210.602 34.144C210.602 37.936 209.738 41.248 208.01 44.08C206.282 46.864 203.978 49.024 201.098 50.56C198.218 52.096 195.002 52.864 191.45 52.864ZM188.426 45.592C190.97 45.592 193.178 45.112 195.05 44.152C196.97 43.192 198.434 41.872 199.442 40.192C200.498 38.464 201.026 36.448 201.026 34.144C201.026 30.688 199.922 27.904 197.714 25.792C195.554 23.68 192.458 22.624 188.426 22.624C185.882 22.624 183.554 23.08 181.442 23.992C179.378 24.904 177.746 26.224 176.546 27.952C175.346 29.632 174.746 31.696 174.746 34.144C174.746 36.448 175.298 38.464 176.402 40.192C177.506 41.872 179.09 43.192 181.154 44.152C183.218 45.112 185.642 45.592 188.426 45.592ZM165.386 16.216H174.314L174.746 25.72V66.4H165.386V16.216ZM214.968 16.216H242.76V23.488H214.968V16.216ZM224.184 6.424H233.544V52H224.184V6.424ZM259.435 0.519998V8.728H248.563V0.519998H259.435ZM249.283 16.216H258.643V52H249.283V16.216ZM287.7 45.88H284.316L297.42 16.216H307.644L290.436 52H281.58L264.732 16.216H275.028L287.7 45.88ZM344.112 40.12H353.184C352.8 42.568 351.768 44.752 350.088 46.672C348.456 48.592 346.224 50.104 343.392 51.208C340.56 52.312 337.104 52.864 333.024 52.864C328.464 52.864 324.432 52.144 320.928 50.704C317.424 49.216 314.688 47.08 312.72 44.296C310.752 41.512 309.768 38.152 309.768 34.216C309.768 30.28 310.728 26.92 312.648 24.136C314.568 21.304 317.232 19.144 320.64 17.656C324.096 16.168 328.128 15.424 332.736 15.424C337.44 15.424 341.352 16.168 344.472 17.656C347.592 19.144 349.896 21.4 351.384 24.424C352.92 27.4 353.568 31.216 353.328 35.872H319.2C319.44 37.696 320.112 39.352 321.216 40.84C322.368 42.328 323.904 43.504 325.824 44.368C327.792 45.232 330.12 45.664 332.808 45.664C335.784 45.664 338.256 45.16 340.224 44.152C342.24 43.096 343.536 41.752 344.112 40.12ZM332.304 22.552C328.848 22.552 326.04 23.32 323.88 24.856C321.72 26.344 320.328 28.192 319.704 30.4H344.04C343.8 28 342.648 26.104 340.584 24.712C338.568 23.272 335.808 22.552 332.304 22.552ZM388.46 5.416V44.008H419.42V52H378.884V5.416H388.46ZM446.779 52.864C442.267 52.864 438.283 52.144 434.827 50.704C431.419 49.264 428.755 47.176 426.835 44.44C424.915 41.656 423.955 38.248 423.955 34.216C423.955 30.184 424.915 26.776 426.835 23.992C428.755 21.16 431.419 19.024 434.827 17.584C438.283 16.144 442.267 15.424 446.779 15.424C451.291 15.424 455.227 16.144 458.587 17.584C461.995 19.024 464.659 21.16 466.579 23.992C468.499 26.776 469.459 30.184 469.459 34.216C469.459 38.248 468.499 41.656 466.579 44.44C464.659 47.176 461.995 49.264 458.587 50.704C455.227 52.144 451.291 52.864 446.779 52.864ZM446.779 45.664C449.275 45.664 451.507 45.232 453.475 44.368C455.491 43.456 457.075 42.16 458.227 40.48C459.379 38.752 459.955 36.664 459.955 34.216C459.955 31.768 459.379 29.68 458.227 27.952C457.075 26.176 455.515 24.832 453.547 23.92C451.579 23.008 449.323 22.552 446.779 22.552C444.283 22.552 442.027 23.008 440.011 23.92C437.995 24.832 436.387 26.152 435.187 27.88C434.035 29.608 433.459 31.72 433.459 34.216C433.459 36.664 434.035 38.752 435.187 40.48C436.339 42.16 437.923 43.456 439.939 44.368C441.955 45.232 444.235 45.664 446.779 45.664ZM494.235 46.528C490.347 46.528 486.915 45.952 483.939 44.8C481.011 43.6 478.731 41.848 477.099 39.544C475.467 37.24 474.651 34.456 474.651 31.192C474.651 27.976 475.443 25.192 477.027 22.84C478.611 20.488 480.867 18.664 483.795 17.368C486.771 16.072 490.251 15.424 494.235 15.424C495.339 15.424 496.395 15.496 497.403 15.64C498.459 15.784 499.491 15.976 500.499 16.216L518.571 16.288V23.344C516.123 23.392 513.627 23.104 511.083 22.48C508.587 21.808 506.379 21.088 504.459 20.32L504.243 19.816C505.875 20.584 507.411 21.544 508.851 22.696C510.291 23.8 511.443 25.096 512.307 26.584C513.219 28.024 513.675 29.704 513.675 31.624C513.675 34.744 512.883 37.432 511.299 39.688C509.715 41.896 507.459 43.6 504.531 44.8C501.651 45.952 498.219 46.528 494.235 46.528ZM506.259 66.76V65.032C506.259 62.824 505.539 61.288 504.099 60.424C502.707 59.56 500.787 59.128 498.339 59.128H487.179C485.019 59.128 483.195 58.96 481.707 58.624C480.267 58.288 479.115 57.808 478.251 57.184C477.387 56.56 476.763 55.816 476.379 54.952C475.995 54.136 475.803 53.248 475.803 52.288C475.803 50.368 476.427 48.928 477.675 47.968C478.923 46.96 480.603 46.288 482.715 45.952C484.827 45.616 487.155 45.544 489.699 45.736L494.235 46.528C491.211 46.624 488.955 46.888 487.467 47.32C486.027 47.704 485.307 48.496 485.307 49.696C485.307 50.416 485.595 50.992 486.171 51.424C486.747 51.808 487.563 52 488.619 52H500.355C503.571 52 506.307 52.336 508.563 53.008C510.867 53.728 512.619 54.904 513.819 56.536C515.019 58.216 515.619 60.496 515.619 63.376V66.76H506.259ZM494.235 39.76C496.299 39.76 498.099 39.424 499.635 38.752C501.219 38.08 502.443 37.12 503.307 35.872C504.171 34.576 504.603 33.04 504.603 31.264C504.603 29.44 504.171 27.88 503.307 26.584C502.443 25.288 501.243 24.304 499.707 23.632C498.171 22.912 496.347 22.552 494.235 22.552C492.171 22.552 490.347 22.912 488.763 23.632C487.179 24.304 485.955 25.288 485.091 26.584C484.227 27.88 483.795 29.44 483.795 31.264C483.795 33.04 484.227 34.576 485.091 35.872C485.955 37.12 487.155 38.08 488.691 38.752C490.275 39.424 492.123 39.76 494.235 39.76ZM545.146 52.864C540.634 52.864 536.65 52.144 533.194 50.704C529.786 49.264 527.122 47.176 525.202 44.44C523.282 41.656 522.322 38.248 522.322 34.216C522.322 30.184 523.282 26.776 525.202 23.992C527.122 21.16 529.786 19.024 533.194 17.584C536.65 16.144 540.634 15.424 545.146 15.424C549.658 15.424 553.594 16.144 556.954 17.584C560.362 19.024 563.026 21.16 564.946 23.992C566.866 26.776 567.826 30.184 567.826 34.216C567.826 38.248 566.866 41.656 564.946 44.44C563.026 47.176 560.362 49.264 556.954 50.704C553.594 52.144 549.658 52.864 545.146 52.864ZM545.146 45.664C547.642 45.664 549.874 45.232 551.842 44.368C553.858 43.456 555.442 42.16 556.594 40.48C557.746 38.752 558.322 36.664 558.322 34.216C558.322 31.768 557.746 29.68 556.594 27.952C555.442 26.176 553.882 24.832 551.914 23.92C549.946 23.008 547.69 22.552 545.146 22.552C542.65 22.552 540.394 23.008 538.378 23.92C536.362 24.832 534.754 26.152 533.554 27.88C532.402 29.608 531.826 31.72 531.826 34.216C531.826 36.664 532.402 38.752 533.554 40.48C534.706 42.16 536.29 43.456 538.306 44.368C540.322 45.232 542.602 45.664 545.146 45.664ZM619.977 5.416C625.209 5.416 629.577 6.04 633.081 7.288C636.585 8.536 639.369 10.24 641.433 12.4C643.545 14.512 645.033 16.96 645.897 19.744C646.809 22.528 647.265 25.456 647.265 28.528C647.265 31.6 646.761 34.552 645.753 37.384C644.793 40.216 643.233 42.736 641.073 44.944C638.961 47.104 636.153 48.832 632.649 50.128C629.193 51.376 624.969 52 619.977 52H593.337V5.416H619.977ZM602.913 43.792H619.761C623.217 43.792 626.073 43.384 628.329 42.568C630.633 41.704 632.457 40.552 633.801 39.112C635.145 37.672 636.105 36.04 636.681 34.216C637.257 32.392 637.545 30.496 637.545 28.528C637.545 26.56 637.257 24.688 636.681 22.912C636.105 21.136 635.145 19.552 633.801 18.16C632.457 16.768 630.633 15.664 628.329 14.848C626.073 14.032 623.217 13.624 619.761 13.624H602.913V43.792ZM688.01 40.12H697.082C696.698 42.568 695.666 44.752 693.986 46.672C692.354 48.592 690.122 50.104 687.29 51.208C684.458 52.312 681.002 52.864 676.922 52.864C672.362 52.864 668.33 52.144 664.826 50.704C661.322 49.216 658.586 47.08 656.618 44.296C654.65 41.512 653.666 38.152 653.666 34.216C653.666 30.28 654.626 26.92 656.546 24.136C658.466 21.304 661.13 19.144 664.538 17.656C667.994 16.168 672.026 15.424 676.634 15.424C681.338 15.424 685.25 16.168 688.37 17.656C691.49 19.144 693.794 21.4 695.282 24.424C696.818 27.4 697.466 31.216 697.226 35.872H663.098C663.338 37.696 664.01 39.352 665.114 40.84C666.266 42.328 667.802 43.504 669.722 44.368C671.69 45.232 674.018 45.664 676.706 45.664C679.682 45.664 682.154 45.16 684.122 44.152C686.138 43.096 687.434 41.752 688.01 40.12ZM676.202 22.552C672.746 22.552 669.938 23.32 667.778 24.856C665.618 26.344 664.226 28.192 663.602 30.4H687.938C687.698 28 686.546 26.104 684.482 24.712C682.466 23.272 679.706 22.552 676.202 22.552ZM702.751 40.12H711.391C711.919 41.752 712.999 43.096 714.631 44.152C716.311 45.16 718.495 45.664 721.183 45.664C723.007 45.664 724.423 45.496 725.431 45.16C726.439 44.824 727.135 44.344 727.519 43.72C727.903 43.048 728.095 42.304 728.095 41.488C728.095 40.48 727.783 39.712 727.159 39.184C726.535 38.608 725.575 38.152 724.279 37.816C722.983 37.48 721.327 37.168 719.311 36.88C717.295 36.544 715.351 36.136 713.479 35.656C711.607 35.176 709.951 34.552 708.511 33.784C707.071 32.968 705.919 31.96 705.055 30.76C704.239 29.512 703.831 28 703.831 26.224C703.831 24.496 704.239 22.96 705.055 21.616C705.919 20.272 707.095 19.144 708.583 18.232C710.119 17.32 711.895 16.624 713.911 16.144C715.975 15.664 718.183 15.424 720.535 15.424C724.087 15.424 727.039 15.952 729.391 17.008C731.743 18.016 733.495 19.456 734.647 21.328C735.847 23.152 736.447 25.264 736.447 27.664H728.167C727.783 25.888 727.015 24.616 725.863 23.848C724.711 23.032 722.935 22.624 720.535 22.624C718.183 22.624 716.407 22.984 715.207 23.704C714.007 24.424 713.407 25.408 713.407 26.656C713.407 27.664 713.767 28.456 714.487 29.032C715.255 29.56 716.359 29.992 717.799 30.328C719.287 30.664 721.135 31.024 723.343 31.408C725.215 31.792 726.991 32.224 728.671 32.704C730.399 33.184 731.935 33.808 733.279 34.576C734.623 35.296 735.679 36.28 736.447 37.528C737.263 38.728 737.671 40.264 737.671 42.136C737.671 44.44 736.999 46.384 735.655 47.968C734.359 49.552 732.487 50.776 730.039 51.64C727.591 52.456 724.663 52.864 721.255 52.864C718.231 52.864 715.615 52.552 713.407 51.928C711.247 51.256 709.447 50.416 708.007 49.408C706.567 48.352 705.439 47.248 704.623 46.096C703.855 44.896 703.327 43.768 703.039 42.712C702.751 41.656 702.655 40.792 702.751 40.12ZM755.56 0.519998V8.728H744.688V0.519998H755.56ZM745.408 16.216H754.768V52H745.408V16.216ZM781.953 46.528C778.065 46.528 774.633 45.952 771.657 44.8C768.729 43.6 766.449 41.848 764.817 39.544C763.185 37.24 762.369 34.456 762.369 31.192C762.369 27.976 763.161 25.192 764.745 22.84C766.329 20.488 768.585 18.664 771.513 17.368C774.489 16.072 777.969 15.424 781.953 15.424C783.057 15.424 784.113 15.496 785.121 15.64C786.177 15.784 787.209 15.976 788.217 16.216L806.289 16.288V23.344C803.841 23.392 801.345 23.104 798.801 22.48C796.305 21.808 794.097 21.088 792.177 20.32L791.961 19.816C793.593 20.584 795.129 21.544 796.569 22.696C798.009 23.8 799.161 25.096 800.025 26.584C800.937 28.024 801.393 29.704 801.393 31.624C801.393 34.744 800.601 37.432 799.017 39.688C797.433 41.896 795.177 43.6 792.249 44.8C789.369 45.952 785.937 46.528 781.953 46.528ZM793.977 66.76V65.032C793.977 62.824 793.257 61.288 791.817 60.424C790.425 59.56 788.505 59.128 786.057 59.128H774.897C772.737 59.128 770.913 58.96 769.425 58.624C767.985 58.288 766.833 57.808 765.969 57.184C765.105 56.56 764.481 55.816 764.097 54.952C763.713 54.136 763.521 53.248 763.521 52.288C763.521 50.368 764.145 48.928 765.393 47.968C766.641 46.96 768.321 46.288 770.433 45.952C772.545 45.616 774.873 45.544 777.417 45.736L781.953 46.528C778.929 46.624 776.673 46.888 775.185 47.32C773.745 47.704 773.025 48.496 773.025 49.696C773.025 50.416 773.313 50.992 773.889 51.424C774.465 51.808 775.281 52 776.337 52H788.073C791.289 52 794.025 52.336 796.281 53.008C798.585 53.728 800.337 54.904 801.537 56.536C802.737 58.216 803.337 60.496 803.337 63.376V66.76H793.977ZM781.953 39.76C784.017 39.76 785.817 39.424 787.353 38.752C788.937 38.08 790.161 37.12 791.025 35.872C791.889 34.576 792.321 33.04 792.321 31.264C792.321 29.44 791.889 27.88 791.025 26.584C790.161 25.288 788.961 24.304 787.425 23.632C785.889 22.912 784.065 22.552 781.953 22.552C779.889 22.552 778.065 22.912 776.481 23.632C774.897 24.304 773.673 25.288 772.809 26.584C771.945 27.88 771.513 29.44 771.513 31.264C771.513 33.04 771.945 34.576 772.809 35.872C773.673 37.12 774.873 38.08 776.409 38.752C777.993 39.424 779.841 39.76 781.953 39.76ZM812.402 16.216H821.762V52H812.402V16.216ZM838.394 15.424C840.602 15.424 842.642 15.712 844.514 16.288C846.386 16.864 848.018 17.752 849.41 18.952C850.802 20.152 851.882 21.688 852.65 23.56C853.418 25.384 853.802 27.568 853.802 30.112V52H844.442V31.768C844.442 28.744 843.698 26.536 842.21 25.144C840.77 23.704 838.394 22.984 835.082 22.984C832.586 22.984 830.33 23.464 828.314 24.424C826.298 25.384 824.666 26.608 823.418 28.096C822.17 29.536 821.45 31.048 821.258 32.632L821.186 28.96C821.426 27.28 821.978 25.648 822.842 24.064C823.706 22.48 824.858 21.04 826.298 19.744C827.786 18.4 829.538 17.344 831.554 16.576C833.57 15.808 835.85 15.424 838.394 15.424ZM149.12 102.864H177.92V109.992H149.12V102.864ZM171.008 87.816H178.424V95.376H173.24C171.848 95.328 170.648 95.472 169.64 95.808C168.632 96.144 167.864 96.768 167.336 97.68C166.808 98.544 166.544 99.792 166.544 101.424V138H157.184V100.272C157.184 97.392 157.712 95.04 158.768 93.216C159.824 91.344 161.384 89.976 163.448 89.112C165.512 88.248 168.032 87.816 171.008 87.816ZM204.377 138.864C199.865 138.864 195.881 138.144 192.425 136.704C189.017 135.264 186.353 133.176 184.433 130.44C182.513 127.656 181.553 124.248 181.553 120.216C181.553 116.184 182.513 112.776 184.433 109.992C186.353 107.16 189.017 105.024 192.425 103.584C195.881 102.144 199.865 101.424 204.377 101.424C208.889 101.424 212.825 102.144 216.185 103.584C219.593 105.024 222.257 107.16 224.177 109.992C226.097 112.776 227.057 116.184 227.057 120.216C227.057 124.248 226.097 127.656 224.177 130.44C222.257 133.176 219.593 135.264 216.185 136.704C212.825 138.144 208.889 138.864 204.377 138.864ZM204.377 131.664C206.873 131.664 209.105 131.232 211.073 130.368C213.089 129.456 214.673 128.16 215.825 126.48C216.977 124.752 217.553 122.664 217.553 120.216C217.553 117.768 216.977 115.68 215.825 113.952C214.673 112.176 213.113 110.832 211.145 109.92C209.177 109.008 206.921 108.552 204.377 108.552C201.881 108.552 199.625 109.008 197.609 109.92C195.593 110.832 193.985 112.152 192.785 113.88C191.633 115.608 191.057 117.72 191.057 120.216C191.057 122.664 191.633 124.752 192.785 126.48C193.937 128.16 195.521 129.456 197.537 130.368C199.553 131.232 201.833 131.664 204.377 131.664ZM233.976 102.216H243.336V138H233.976V102.216ZM257.088 109.92C254.4 109.92 252.072 110.448 250.104 111.504C248.136 112.512 246.552 113.76 245.352 115.248C244.152 116.736 243.312 118.176 242.832 119.568L242.76 115.608C242.808 115.032 243 114.192 243.336 113.088C243.672 111.936 244.176 110.712 244.848 109.416C245.52 108.072 246.408 106.8 247.512 105.6C248.616 104.352 249.96 103.344 251.544 102.576C253.128 101.808 254.976 101.424 257.088 101.424V109.92ZM327.834 91.416L307.386 123.312V138H297.738V123.312L277.29 91.416H288.378L305.586 119.28H299.826L316.746 91.416H327.834ZM347.533 138.864C343.021 138.864 339.037 138.144 335.581 136.704C332.173 135.264 329.509 133.176 327.589 130.44C325.669 127.656 324.709 124.248 324.709 120.216C324.709 116.184 325.669 112.776 327.589 109.992C329.509 107.16 332.173 105.024 335.581 103.584C339.037 102.144 343.021 101.424 347.533 101.424C352.045 101.424 355.981 102.144 359.341 103.584C362.749 105.024 365.413 107.16 367.333 109.992C369.253 112.776 370.213 116.184 370.213 120.216C370.213 124.248 369.253 127.656 367.333 130.44C365.413 133.176 362.749 135.264 359.341 136.704C355.981 138.144 352.045 138.864 347.533 138.864ZM347.533 131.664C350.029 131.664 352.261 131.232 354.229 130.368C356.245 129.456 357.829 128.16 358.981 126.48C360.133 124.752 360.709 122.664 360.709 120.216C360.709 117.768 360.133 115.68 358.981 113.952C357.829 112.176 356.269 110.832 354.301 109.92C352.333 109.008 350.077 108.552 347.533 108.552C345.037 108.552 342.781 109.008 340.765 109.92C338.749 110.832 337.141 112.152 335.941 113.88C334.789 115.608 334.213 117.72 334.213 120.216C334.213 122.664 334.789 124.752 335.941 126.48C337.093 128.16 338.677 129.456 340.693 130.368C342.709 131.232 344.989 131.664 347.533 131.664ZM418.533 138H409.172V102.216H418.533V138ZM409.677 120.792L409.749 123.24C409.653 123.912 409.413 124.896 409.029 126.192C408.645 127.44 408.045 128.784 407.229 130.224C406.461 131.664 405.453 133.056 404.205 134.4C402.957 135.696 401.421 136.776 399.597 137.64C397.773 138.456 395.613 138.864 393.117 138.864C391.149 138.864 389.205 138.624 387.285 138.144C385.413 137.664 383.709 136.872 382.173 135.768C380.637 134.616 379.413 133.08 378.501 131.16C377.589 129.24 377.133 126.816 377.133 123.888V102.216H386.493V122.304C386.493 124.608 386.853 126.432 387.573 127.776C388.341 129.072 389.445 129.984 390.885 130.512C392.325 131.04 394.029 131.304 395.997 131.304C398.589 131.304 400.821 130.752 402.693 129.648C404.565 128.496 406.077 127.104 407.229 125.472C408.429 123.84 409.245 122.28 409.677 120.792ZM427.054 102.216H436.414V138H427.054V102.216ZM450.166 109.92C447.478 109.92 445.15 110.448 443.182 111.504C441.214 112.512 439.63 113.76 438.43 115.248C437.23 116.736 436.39 118.176 435.91 119.568L435.838 115.608C435.886 115.032 436.078 114.192 436.414 113.088C436.75 111.936 437.254 110.712 437.926 109.416C438.598 108.072 439.486 106.8 440.59 105.6C441.694 104.352 443.038 103.344 444.622 102.576C446.206 101.808 448.054 101.424 450.166 101.424V109.92ZM474.544 138V91.416H501.4C507.64 91.416 512.368 92.472 515.584 94.584C518.848 96.648 520.48 99.744 520.48 103.872C520.48 106.512 519.832 108.6 518.536 110.136C517.24 111.624 515.392 112.728 512.992 113.448C510.64 114.168 507.856 114.624 504.64 114.816L504.928 114.312C507.28 114.36 509.488 114.528 511.552 114.816C513.664 115.104 515.512 115.632 517.096 116.4C518.68 117.168 519.928 118.248 520.84 119.64C521.752 120.984 522.208 122.76 522.208 124.968C522.208 127.848 521.44 130.248 519.904 132.168C518.368 134.04 516.232 135.456 513.496 136.416C510.76 137.376 507.592 137.904 503.992 138H474.544ZM484.12 130.08H502.984C506.008 130.08 508.336 129.6 509.968 128.64C511.6 127.632 512.416 126.048 512.416 123.888C512.416 122.304 511.936 121.152 510.976 120.432C510.016 119.712 508.744 119.28 507.16 119.136C505.576 118.944 503.872 118.848 502.048 118.848H484.12V130.08ZM484.12 111.144H501.04C504.064 111.144 506.392 110.712 508.024 109.848C509.656 108.936 510.472 107.4 510.472 105.24C510.472 103.08 509.656 101.568 508.024 100.704C506.392 99.792 504.232 99.336 501.544 99.336H484.12V111.144ZM529.5 102.216H538.86V138H529.5V102.216ZM552.612 109.92C549.924 109.92 547.596 110.448 545.628 111.504C543.66 112.512 542.076 113.76 540.876 115.248C539.676 116.736 538.836 118.176 538.356 119.568L538.284 115.608C538.332 115.032 538.524 114.192 538.86 113.088C539.196 111.936 539.7 110.712 540.372 109.416C541.044 108.072 541.932 106.8 543.036 105.6C544.14 104.352 545.484 103.344 547.068 102.576C548.652 101.808 550.5 101.424 552.612 101.424V109.92ZM575.822 138.792C572.27 138.792 569.03 138.024 566.102 136.488C563.222 134.904 560.918 132.72 559.19 129.936C557.51 127.104 556.67 123.84 556.67 120.144C556.67 116.352 557.534 113.064 559.262 110.28C560.99 107.496 563.318 105.336 566.246 103.8C569.222 102.216 572.582 101.424 576.326 101.424C580.454 101.424 583.766 102.264 586.262 103.944C588.806 105.576 590.654 107.808 591.806 110.64C592.958 113.472 593.534 116.64 593.534 120.144C593.534 122.256 593.198 124.416 592.526 126.624C591.854 128.784 590.822 130.8 589.43 132.672C588.038 134.496 586.214 135.984 583.958 137.136C581.702 138.24 578.99 138.792 575.822 138.792ZM578.846 131.592C581.678 131.592 584.126 131.112 586.19 130.152C588.254 129.192 589.838 127.848 590.942 126.12C592.046 124.392 592.598 122.4 592.598 120.144C592.598 117.696 592.022 115.632 590.87 113.952C589.766 112.224 588.182 110.928 586.118 110.064C584.102 109.152 581.678 108.696 578.846 108.696C574.862 108.696 571.766 109.752 569.558 111.864C567.35 113.928 566.246 116.688 566.246 120.144C566.246 122.448 566.774 124.464 567.83 126.192C568.886 127.872 570.35 129.192 572.222 130.152C574.142 131.112 576.35 131.592 578.846 131.592ZM592.598 102.216H601.958V138H593.246C593.246 138 593.174 137.544 593.03 136.632C592.934 135.672 592.838 134.472 592.742 133.032C592.646 131.592 592.598 130.176 592.598 128.784V102.216ZM610.429 102.216H619.789V138H610.429V102.216ZM636.421 101.424C638.629 101.424 640.669 101.712 642.541 102.288C644.413 102.864 646.045 103.752 647.437 104.952C648.829 106.152 649.909 107.688 650.677 109.56C651.445 111.384 651.829 113.568 651.829 116.112V138H642.469V117.768C642.469 114.744 641.725 112.536 640.237 111.144C638.797 109.704 636.421 108.984 633.109 108.984C630.613 108.984 628.357 109.464 626.341 110.424C624.325 111.384 622.693 112.608 621.445 114.096C620.197 115.536 619.477 117.048 619.285 118.632L619.213 114.96C619.453 113.28 620.005 111.648 620.869 110.064C621.733 108.48 622.885 107.04 624.325 105.744C625.813 104.4 627.565 103.344 629.581 102.576C631.597 101.808 633.877 101.424 636.421 101.424ZM677.775 138.792C674.175 138.792 670.911 138.024 667.983 136.488C665.103 134.904 662.823 132.72 661.143 129.936C659.463 127.104 658.623 123.84 658.623 120.144C658.623 116.352 659.439 113.064 661.071 110.28C662.751 107.496 665.031 105.336 667.911 103.8C670.791 102.216 674.079 101.424 677.775 101.424C680.991 101.424 683.727 101.904 685.983 102.864C688.239 103.824 690.063 105.168 691.455 106.896C692.847 108.576 693.855 110.544 694.479 112.8C695.151 115.056 695.487 117.504 695.487 120.144C695.487 122.256 695.151 124.416 694.479 126.624C693.807 128.784 692.775 130.8 691.383 132.672C689.991 134.496 688.167 135.984 685.911 137.136C683.655 138.24 680.943 138.792 677.775 138.792ZM680.799 131.592C683.631 131.592 686.079 131.112 688.143 130.152C690.207 129.192 691.791 127.848 692.895 126.12C693.999 124.392 694.551 122.4 694.551 120.144C694.551 117.696 693.975 115.632 692.823 113.952C691.719 112.224 690.135 110.904 688.071 109.992C686.055 109.08 683.631 108.624 680.799 108.624C676.815 108.624 673.719 109.68 671.511 111.792C669.303 113.904 668.199 116.688 668.199 120.144C668.199 122.448 668.727 124.464 669.783 126.192C670.839 127.872 672.303 129.192 674.175 130.152C676.095 131.112 678.303 131.592 680.799 131.592ZM694.551 87.816H703.911V138H695.199C695.055 136.896 694.911 135.48 694.767 133.752C694.623 131.976 694.551 130.32 694.551 128.784V87.816Z" fill="white"/>
</svg>
